#tb 0: 1/100
#media_type 0: video
#codec_id 0: gif
#dimensions 0: 480x360
#sar 0: 0/1
0,          0,          0,        5,    74699, 0xef7e91c8
0,          5,          5,        2,    10079, 0x2892d9e2, F=0x0
0,          7,          7,        2,    12369, 0xd7d73286, F=0x0
0,          9,          9,        2,     8868, 0x4bb59b6d, F=0x0
0,         11,         11,        2,     8249, 0x23d5d174, F=0x0
0,         13,         13,        2,     8381, 0x10acf0cd, F=0x0
0,         15,         15,        2,     8579, 0xdfe108b2, F=0x0
0,         17,         17,        2,     8200, 0x46ec6c55, F=0x0
0,         19,         19,        2,     7261, 0xaf328999, F=0x0
0,         21,         21,        4,     7047, 0xab3d2bd0, F=0x0
0,         25,         25,        2,     6486, 0xa1629769, F=0x0
0,         27,         27,        2,     7278, 0x4c55b7ce, F=0x0
0,         29,         29,        2,     7761, 0x54368171, F=0x0
0,         31,         31,        2,     7794, 0xbde2dbcd, F=0x0
0,         33,         33,        2,     7935, 0xe6202c65, F=0x0
0,         35,         35,        2,     8499, 0x1d5ceb7e, F=0x0
0,         37,         37,        2,     8841, 0xc962be37, F=0x0
0,         39,         39,        2,     9281, 0x7ec29c31, F=0x0
0,         41,         41,        5,     9606, 0x3de06d48, F=0x0
0,         46,         46,        2,     6319, 0xb3e94478, F=0x0
0,         48,         48,        2,     5521, 0xc8157edc, F=0x0
0,         50,         50,        2,     5052, 0x23e8ea7c, F=0x0
0,         52,         52,        2,     4651, 0xa73f25c9, F=0x0
0,         54,         54,        2,     4477, 0x1ddcc2c3, F=0x0
0,         56,         56,        2,     4736, 0x6ead0d5e, F=0x0
0,         58,         58,        2,     4609, 0x8bc7faa3, F=0x0
0,         60,         60,        2,     4474, 0x3926975e, F=0x0
0,         62,         62,        4,     4381, 0x28c392d5, F=0x0
0,         66,         66,        2,     4443, 0x9c33b143, F=0x0
0,         68,         68,        2,     4540, 0xb1d1c8b9, F=0x0
0,         70,         70,        2,     4530, 0x773bc617, F=0x0
0,         72,         72,        2,     4558, 0xa1e8cdf3, F=0x0
0,         74,         74,        2,     4633, 0x8f64fda7, F=0x0
0,         76,         76,        2,     4700, 0x45f40805, F=0x0
0,         78,         78,        2,     5117, 0x4eb4c5fb, F=0x0
0,         80,         80,        2,     5371, 0x1a66694b, F=0x0
